<?xml version="1.0" standalone="yes"?><!DOCTYPE svg PUBLIC "-//W3C//DTD SVG 1.1//EN" "http://www.w3.org/Graphics/SVG/1.1/DTD/svg11.dtd"[
<!ENTITY E18 'stroke:none;opacity:1;fill:rgb(68,154,223);'><!ENTITY E8 'matrix(1.00 0.00 0.00 1.00 0.00 0.00 ) '><!ENTITY E1 'stroke:rgb(169,169,169);fill:none;stroke-linecap:butt;stroke-miterlimit:9;opacity:1;stroke-width:1.5;stroke-linejoin:miter;'><!ENTITY E23 'stroke:none;fill-rule:evenodd;opacity:1;fill:rgb(255,255,255);'><!ENTITY E11 'stroke:rgb(169,169,169);fill:none;stroke-linecap:butt;stroke-miterlimit:9;opacity:1;stroke-width:2;stroke-linejoin:miter;'><!ENTITY E42 'matrix(1.50 0.00 0.00 1.50 6.00 6.00 ) '><!ENTITY E40 'stroke:none;opacity:1;fill:rgb(91,178,126);'><!ENTITY E39 'matrix(1.50 0.00 0.00 1.50 126.00 126.00 ) '><!ENTITY E2 'matrix(1.50 0.00 0.00 1.50 486.00 6.00 ) '><!ENTITY E5 'stroke:rgb(255,255,255);fill:none;stroke-linecap:butt;stroke-miterlimit:9;opacity:1;stroke-width:2;stroke-linejoin:miter;'><!ENTITY E38 'M 31.179 5.2 C 34.9985 11.0918 34.9814 18.682 31.13552 24.557 '><!ENTITY E17 'matrix(1.50 0.00 0.00 1.50 366.00 6.00 ) '><!ENTITY E31 'matrix(1.50 0.00 0.00 1.50 246.00 126.00 ) '><!ENTITY E21 'matrix(1.50 0.00 0.00 1.50 366.00 126.00 ) '><!ENTITY E35 'matrix(1.50 0.00 0.00 1.50 126.00 6.00 ) '><!ENTITY E14 'M 15.011 14.916 15.15146 23.9388 M 23.14376 10.5618 15.01096 14.9158 6.97086 10.5618 M 6.924747 10.5618 15.15145 5.893101 23.14375 10.5618 23.14375 19.2433 15.15145 23.9386 6.924747 19.2433 z '><!ENTITY E12 'matrix(1.50 0.00 0.00 1.50 486.00 126.00 ) '><!ENTITY E28 'matrix(1.50 0.00 0.00 1.50 246.00 6.00 ) '>
]><svg width="571.5989" height="238.8281" id="SvgGdi_output" xmlns="http://www.w3.org/2000/svg"><rect id="background" height="100.00%" style="fill:rgb(255,255,255);" width="100.00%" y="0.00" x="0.00" /><g style="shape-rendering:auto;" id="root_group"><line y1="28.50" style="&E1;" id="334" x2="480.00" y2="28.50" x1="417.00" /><line y1="148.50" style="&E1;" id="335" x2="480.00" y2="148.50" x1="417.00" /><line y1="28.50" style="&E1;" id="336" x2="360.00" y2="28.50" x1="297.00" /><line y1="148.50" style="&E1;" id="337" x2="360.00" y2="148.50" x1="297.00" /><line y1="28.50" style="&E1;" id="338" x2="240.00" y2="28.50" x1="177.00" /><line y1="148.50" style="&E1;" id="339" x2="240.00" y2="148.50" x1="177.00" /><line y1="28.50" style="&E1;" id="340" x2="120.00" y2="28.50" x1="57.00" /><ellipse id="341" cy="15.00" cx="15.00" transform="&E2;" rx="15.00" ry="15.00" style="stroke:none;opacity:1;fill:rgb(238,192,75);" /><path style="&E5;" transform="&E2;" id="342" d="M 7.3965 19.566 7.3965 10.8433 " /><path style="&E5;" transform="&E2;" id="343" d="M 11.085 22.137 14.2178 8.273999 " /><ellipse id="344" cy="15.15" cx="20.49" transform="&E2;" rx="4.18" ry="4.18" style="&E5;" /><text id="345" transform="&E8;" x="486.00" y="58.50" style="stroke:none;clip-path:url(#347_text_clipper);font-family:Microsoft Sans Serif;fill:rgb(0,0,0);font-size:12.00pt;opacity:1;"><tspan dy="12.00pt" id="349">Load</tspan></text><text id="351" transform="&E8;" x="486.00" y="76.61" style="stroke:none;clip-path:url(#353_text_clipper);font-family:Microsoft Sans Serif;fill:rgb(0,0,0);font-size:12.00pt;opacity:1;"><tspan dy="12.00pt" id="355">Resources</tspan></text><path style="&E11;" transform="&E12;" id="357" d="M 10.158 33.2 C 3.4054 31.7591 -1.861 26.4692 -3.271 19.71 " /><ellipse id="358" cy="15.00" cx="15.00" transform="&E12;" rx="15.00" ry="15.00" style="stroke:none;opacity:1;fill:rgb(155,91,179);" /><path d="&E14;" style="&E5;" transform="&E12;" id="359" /><text id="360" transform="&E8;" x="486.00" y="178.50" style="stroke:none;clip-path:url(#362_text_clipper);font-family:Microsoft Sans Serif;fill:rgb(0,0,0);font-size:12.00pt;opacity:1;"><tspan dy="12.00pt" id="364">Update</tspan></text><text id="366" transform="&E8;" x="486.00" y="196.61" style="stroke:none;clip-path:url(#368_text_clipper);font-family:Microsoft Sans Serif;fill:rgb(0,0,0);font-size:12.00pt;opacity:1;"><tspan dy="12.00pt" id="370">Uniform</tspan></text><ellipse id="372" cy="15.00" cx="15.00" transform="&E17;" rx="15.00" ry="15.00" style="&E18;" /><path d="&E14;" style="&E5;" transform="&E17;" id="373" /><text id="374" transform="&E8;" x="366.00" y="58.50" style="stroke:none;clip-path:url(#376_text_clipper);font-family:Microsoft Sans Serif;fill:rgb(0,0,0);font-size:12.00pt;opacity:1;"><tspan dy="12.00pt" id="378">Shader</tspan></text><text id="380" transform="&E8;" x="366.00" y="76.61" style="stroke:none;clip-path:url(#382_text_clipper);font-family:Microsoft Sans Serif;fill:rgb(0,0,0);font-size:12.00pt;opacity:1;"><tspan dy="12.00pt" id="384">Resources</tspan></text><ellipse id="386" cy="15.00" cx="15.00" transform="&E21;" rx="15.00" ry="15.00" style="&E18;" /><path style="&E23;" transform="&E21;" id="387" d="M 10.824 9.4752 3.5613 15.0588 10.824 20.6107 10.81521 18.3247 6.519011 15.0267 10.82391 11.7422 z " /><path style="&E23;" transform="&E21;" id="388" d="M 15.365 7.2336 C 15.34647 7.33547 15.32125 7.4371 15.31422 7.5375 14.41077 12.6441 13.49692 17.7495 12.59942 22.8575 12.59508 22.88635 12.6018 22.91223 12.59942 22.94062 L 14.62872 22.94062 C 14.70348 22.53324 14.73679 22.1026 14.8377 21.71462 15.68204 16.94102 16.5365 12.17012 17.3748 7.394619 17.38163 7.340435 17.37866 7.287239 17.3787 7.233579 z " /><path style="&E23;" transform="&E21;" id="389" d="M 19.044 9.4746 26.3067 15.0582 19.044 20.6101 19.05279 18.3241 23.34899 15.0261 19.04409 11.7416 z " /><text id="390" transform="&E8;" x="366.00" y="178.50" style="stroke:none;clip-path:url(#392_text_clipper);font-family:Microsoft Sans Serif;fill:rgb(0,0,0);font-size:12.00pt;opacity:1;"><tspan dy="12.00pt" id="394">Expression</tspan></text><text id="396" transform="&E8;" x="366.00" y="196.61" style="stroke:none;clip-path:url(#398_text_clipper);font-family:Microsoft Sans Serif;fill:rgb(0,0,0);font-size:12.00pt;opacity:1;"><tspan dy="12.00pt" id="400">Transform</tspan></text><ellipse id="402" cy="15.00" cx="15.00" transform="&E28;" rx="15.00" ry="15.00" style="&E18;" /><path d="&E14;" style="&E5;" transform="&E28;" id="403" /><text id="404" transform="&E8;" x="246.00" y="58.50" style="stroke:none;clip-path:url(#406_text_clipper);font-family:Microsoft Sans Serif;fill:rgb(0,0,0);font-size:12.00pt;opacity:1;"><tspan dy="12.00pt" id="408">Texture</tspan></text><text id="410" transform="&E8;" x="246.00" y="76.61" style="stroke:none;clip-path:url(#412_text_clipper);font-family:Microsoft Sans Serif;fill:rgb(0,0,0);font-size:12.00pt;opacity:1;"><tspan dy="12.00pt" id="414">Resources</tspan></text><ellipse id="416" cy="15.00" cx="15.00" transform="&E31;" rx="15.00" ry="15.00" style="&E18;" /><path d="&E14;" style="&E5;" transform="&E31;" id="417" /><text id="418" transform="&E8;" x="246.00" y="178.50" style="stroke:none;clip-path:url(#420_text_clipper);font-family:Microsoft Sans Serif;fill:rgb(0,0,0);font-size:12.00pt;opacity:1;"><tspan dy="12.00pt" id="422">Normalized</tspan></text><text id="424" transform="&E8;" x="246.00" y="196.61" style="stroke:none;clip-path:url(#426_text_clipper);font-family:Microsoft Sans Serif;fill:rgb(0,0,0);font-size:12.00pt;opacity:1;"><tspan dy="12.00pt" id="428">Device</tspan></text><text id="430" transform="&E8;" x="246.00" y="214.72" style="stroke:none;clip-path:url(#432_text_clipper);font-family:Microsoft Sans Serif;fill:rgb(0,0,0);font-size:12.00pt;opacity:1;"><tspan dy="12.00pt" id="434">Coordinates</tspan></text><ellipse id="436" cy="15.00" cx="15.00" transform="&E35;" rx="15.00" ry="15.00" style="&E18;" /><path d="&E14;" style="&E5;" transform="&E35;" id="437" /><text id="438" transform="&E8;" x="126.00" y="58.50" style="stroke:none;clip-path:url(#440_text_clipper);font-family:Microsoft Sans Serif;fill:rgb(0,0,0);font-size:12.00pt;opacity:1;"><tspan dy="12.00pt" id="442">Mesh</tspan></text><text id="444" transform="&E8;" x="126.00" y="76.61" style="stroke:none;clip-path:url(#446_text_clipper);font-family:Microsoft Sans Serif;fill:rgb(0,0,0);font-size:12.00pt;opacity:1;"><tspan dy="12.00pt" id="448">Resources</tspan></text><path d="&E38;" style="&E11;" transform="&E39;" id="450" /><ellipse id="451" cy="15.00" cx="15.00" transform="&E39;" rx="15.00" ry="15.00" style="&E40;" /><path d="&E14;" style="&E5;" transform="&E39;" id="452" /><text id="453" transform="&E8;" x="126.00" y="178.50" style="stroke:none;clip-path:url(#455_text_clipper);font-family:Microsoft Sans Serif;fill:rgb(0,0,0);font-size:12.00pt;opacity:1;"><tspan dy="12.00pt" id="457">MouseMove</tspan></text><path d="&E38;" style="&E11;" transform="&E42;" id="459" /><ellipse id="460" cy="15.00" cx="15.00" transform="&E42;" rx="15.00" ry="15.00" style="&E40;" /><path d="&E14;" style="&E5;" transform="&E42;" id="461" /><text id="462" transform="&E8;" x="6.00" y="58.50" style="stroke:none;clip-path:url(#464_text_clipper);font-family:Microsoft Sans Serif;fill:rgb(0,0,0);font-size:12.00pt;opacity:1;"><tspan dy="12.00pt" id="466">CreateWindow</tspan></text></g><defs id="clips_hatches_and_gradients"><clipPath id="347_text_clipper"><rect x="486.00" y="58.50" width="84.10" height="40.22" id="348" /></clipPath><clipPath id="353_text_clipper"><rect x="486.00" y="76.61" width="84.10" height="40.22" id="354" /></clipPath><clipPath id="362_text_clipper"><rect x="486.00" y="178.50" width="63.11" height="40.22" id="363" /></clipPath><clipPath id="368_text_clipper"><rect x="486.00" y="196.61" width="63.11" height="40.22" id="369" /></clipPath><clipPath id="376_text_clipper"><rect x="366.00" y="58.50" width="84.10" height="40.22" id="377" /></clipPath><clipPath id="382_text_clipper"><rect x="366.00" y="76.61" width="84.10" height="40.22" id="383" /></clipPath><clipPath id="392_text_clipper"><rect x="366.00" y="178.50" width="86.95" height="40.22" id="393" /></clipPath><clipPath id="398_text_clipper"><rect x="366.00" y="196.61" width="86.95" height="40.22" id="399" /></clipPath><clipPath id="406_text_clipper"><rect x="246.00" y="58.50" width="84.10" height="40.22" id="407" /></clipPath><clipPath id="412_text_clipper"><rect x="246.00" y="76.61" width="84.10" height="40.22" id="413" /></clipPath><clipPath id="420_text_clipper"><rect x="246.00" y="178.50" width="94.28" height="60.33" id="421" /></clipPath><clipPath id="426_text_clipper"><rect x="246.00" y="196.61" width="94.28" height="60.33" id="427" /></clipPath><clipPath id="432_text_clipper"><rect x="246.00" y="214.72" width="94.28" height="60.33" id="433" /></clipPath><clipPath id="440_text_clipper"><rect x="126.00" y="58.50" width="84.10" height="40.22" id="441" /></clipPath><clipPath id="446_text_clipper"><rect x="126.00" y="76.61" width="84.10" height="40.22" id="447" /></clipPath><clipPath id="455_text_clipper"><rect x="126.00" y="178.50" width="95.09" height="20.11" id="456" /></clipPath><clipPath id="464_text_clipper"><rect x="6.00" y="58.50" width="113.49" height="20.11" id="465" /></clipPath></defs></svg>