<?xml version="1.0" encoding="utf-8"?>
<!-- Generator: Adobe Illustrator 22.0.1, SVG Export Plug-In . SVG Version: 6.00 Build 0)  -->
<svg version="1.1" id="Layer_1" xmlns="http://www.w3.org/2000/svg" xmlns:xlink="http://www.w3.org/1999/xlink" x="0px" y="0px"
	 viewBox="0 0 85 85" style="enable-background:new 0 0 85 85;" xml:space="preserve">
<style type="text/css">
	.st0{fill:none;stroke:#000000;stroke-width:0.5;stroke-miterlimit:10;}
	.st1{fill:#00FFFF;stroke:#000000;stroke-width:0.5;stroke-miterlimit:10;}
	.st2{fill:#40BFFF;stroke:#000000;stroke-width:0.5;stroke-miterlimit:10;}
	.st3{fill:#807FFF;stroke:#000000;stroke-width:0.5;stroke-miterlimit:10;}
	.st4{fill:#C03FFF;stroke:#000000;stroke-width:0.5;stroke-miterlimit:10;}
	.st5{fill:#FF00FF;stroke:#000000;stroke-width:0.5;stroke-miterlimit:10;}
	.st6{fill:#9B0000;stroke:#000000;stroke-width:0.5;stroke-miterlimit:10;}
	.st7{font-family:'ArialMT';}
	.st8{font-size:12px;}
</style>
<path class="st0" d="M53.7,81.2"/>
<circle class="st1" cx="29.3" cy="45.1" r="7.8"/>
<circle class="st2" cx="30.7" cy="61.1" r="6.1"/>
<circle class="st3" cx="36.8" cy="71.9" r="4.4"/>
<circle class="st4" cx="45.3" cy="77.1" r="2.4"/>
<circle class="st5" cx="51.8" cy="75" r="1.7"/>
<path class="st6" d="M19.4,25.7c5.1-9.2,9.9-18,9.9-18s0,0,0-0.3v0.3l20.4,37.1c-4.1-7.5-11.6-12.6-20.1-12.6
	c-8.8,0-17,4.8-21.1,12.6C12.3,38.6,15.7,32.1,19.4,25.7z"/>
<text transform="matrix(1 0 0 1 46.1192 29.0039)"><tspan x="0" y="0" class="st7 st8">Bonsai</tspan><tspan x="8.7" y="14.4" class="st7 st8">Tail</tspan><tspan x="3.3" y="28.8" class="st7 st8">Track</tspan></text>
</svg>
