<?xml version="1.0" encoding="utf-8"?>
<!-- Generator: Adobe Illustrator 22.0.1, SVG Export Plug-In . SVG Version: 6.00 Build 0)  -->
<svg version="1.1" id="Layer_1" xmlns="http://www.w3.org/2000/svg" xmlns:xlink="http://www.w3.org/1999/xlink" x="0px" y="0px"
	 viewBox="0 0 85 85" style="enable-background:new 0 0 85 85;" xml:space="preserve">
<style type="text/css">
	.st0{fill:none;stroke:#000000;stroke-width:0.5;stroke-miterlimit:10;}
	.st1{fill:#00FFFF;stroke:#000000;stroke-width:0.5;stroke-miterlimit:10;}
	.st2{fill:#40BFFF;stroke:#000000;stroke-width:0.5;stroke-miterlimit:10;}
	.st3{fill:#807FFF;stroke:#000000;stroke-width:0.5;stroke-miterlimit:10;}
	.st4{fill:#C03FFF;stroke:#000000;stroke-width:0.5;stroke-miterlimit:10;}
	.st5{fill:#FF00FF;stroke:#000000;stroke-width:0.5;stroke-miterlimit:10;}
	.st6{fill:#00FFBE;stroke:#000000;stroke-width:0.5;stroke-miterlimit:10;}
	.st7{font-family:'ArialMT';}
	.st8{font-size:14px;}
</style>
<path class="st0" d="M53.7,81.2"/>
<circle class="st1" cx="20.8" cy="42.5" r="9"/>
<circle class="st2" cx="17.9" cy="57.6" r="6.1"/>
<circle class="st3" cx="20.8" cy="68.1" r="4.4"/>
<circle class="st4" cx="26.4" cy="72.4" r="2.4"/>
<circle class="st5" cx="30" cy="70.7" r="1.7"/>
<path class="st6" d="M16.9,24.3c8-6.8,15.6-13.4,15.6-13.4s0,0,0.1-0.3l-0.1,0.3l6.1,41.9C37.4,44.4,32.1,37,24.2,34
	C15.9,30.9,6.6,32.5,0,38.3C5.7,33.9,11.2,29,16.9,24.3z"/>
<text transform="matrix(1 0 0 1 38.2003 36.9918)" class="st7 st8">Bonsai</text>
<text transform="matrix(1 0 0 1 47.5002 51.5743)" class="st7 st8">Tail</text>
<text transform="matrix(1 0 0 1 30.867 65.9581)" class="st7 st8">Tracking</text>
</svg>
