<?xml version="1.0" encoding="utf-8"?>
<!-- Generator: Adobe Illustrator 22.0.1, SVG Export Plug-In . SVG Version: 6.00 Build 0)  -->
<svg version="1.1" id="Layer_1" xmlns="http://www.w3.org/2000/svg" xmlns:xlink="http://www.w3.org/1999/xlink" x="0px" y="0px"
	 viewBox="0 0 85 85" style="enable-background:new 0 0 85 85;" xml:space="preserve">
<style type="text/css">
	.st0{fill:none;stroke:#000000;stroke-width:0.5;stroke-miterlimit:10;}
	.st1{font-family:'CourierNewPS-BoldMT';}
	.st2{font-size:17px;}
	.st3{fill:#FFFFFF;stroke:#3CFF00;stroke-width:0.5;stroke-miterlimit:10;}
	.st4{fill:#FF0000;stroke:#000000;stroke-width:0.5;stroke-miterlimit:10;}
	.st5{fill:none;stroke:#000000;stroke-width:0.5;stroke-miterlimit:10;stroke-dasharray:1.0064,1.0064;}
	.st6{fill:none;stroke:#000000;stroke-width:0.5;stroke-miterlimit:10;stroke-dasharray:1;}
	.st7{fill:#00E7FF;stroke:#000000;stroke-width:0.5;stroke-miterlimit:10;}
	.st8{fill:none;stroke:#3CFF00;stroke-width:0.5;stroke-miterlimit:10;}
</style>
<path class="st0" d="M53.7,81.2"/>
<text transform="matrix(1 0 0 1 2.8584 60.1547)" class="st1 st2">Tail</text>
<text transform="matrix(1 0 0 1 2.8583 74.2875)" class="st1 st2">Tracking</text>
<line class="st3" x1="73.4" y1="54.3" x2="49.3" y2="57.5"/>
<circle class="st4" cx="62.5" cy="55.7" r="1.8"/>
<g>
	<g>
		<path class="st0" d="M59.3,40.1c-0.1-0.1-0.2-0.3-0.3-0.4"/>
		<path class="st5" d="M58.3,39c-2.3-2.6-5.7-5.5-10.4-6.9c-9.9-3-16.7,3.3-23.6-0.1c-3-1.5-6.5-5-8.2-14.4"/>
		<path class="st0" d="M16,17c0-0.2-0.1-0.3-0.1-0.5"/>
	</g>
</g>
<line class="st6" x1="58.7" y1="41.6" x2="62.3" y2="53.1"/>
<line class="st6" x1="61.1" y1="38.8" x2="74.3" y2="40.1"/>
<line class="st0" x1="62.3" y1="53.1" x2="62.9" y2="54"/>
<circle class="st7" cx="58.1" cy="38.8" r="1.8"/>
<circle class="st7" cx="49.6" cy="32.5" r="1.8"/>
<circle class="st7" cx="38.3" cy="31.4" r="1.8"/>
<circle class="st7" cx="25" cy="32.6" r="1.8"/>
<circle class="st7" cx="17.7" cy="24.3" r="1.8"/>
<circle class="st7" cx="15.9" cy="16.2" r="1.8"/>
<path class="st0" d="M12.3,17.2c2.5,12.1,7.3,16.9,11.4,19c8.5,4.3,17-1.9,26.1,3.1c5.4,3,8.3,8.3,9.9,12.5"/>
<line class="st0" x1="12.3" y1="17.2" x2="5.4" y2="12.4"/>
<path class="st0" d="M18.9,14.2C19.4,18,20.9,23,25,26c6.7,4.9,14.8-0.2,26.6,1.7C56.8,28.5,64,30.9,72,37.8"/>
<line class="st0" x1="18.9" y1="14.2" x2="21" y2="6.9"/>
<line class="st0" x1="5.4" y1="12.4" x2="14.8" y2="12.5"/>
<line class="st0" x1="21" y1="6.9" x2="14.8" y2="12.5"/>
<ellipse transform="matrix(0.9966 -8.181854e-02 8.181854e-02 0.9966 -4.3535 5.2738)" class="st0" cx="62.2" cy="55.8" rx="8.8" ry="4"/>
<path class="st0" d="M79.1,47.2c0.2,0.8,0.9,4.1-0.9,7.1c-2,3.4-6.4,5.2-10.9,4.3"/>
<ellipse transform="matrix(0.9966 -8.181854e-02 8.181854e-02 0.9966 -3.0411 6.3685)" class="st0" cx="76.2" cy="40.3" rx="4" ry="8.8"/>
<line class="st8" x1="74.6" y1="28.3" x2="77.7" y2="52.4"/>
<circle class="st4" cx="76.3" cy="41.1" r="1.8"/>
</svg>
