<?xml version="1.0" encoding="utf-8"?>
<!-- Generator: Adobe Illustrator 22.0.1, SVG Export Plug-In . SVG Version: 6.00 Build 0)  -->
<svg version="1.1" id="Layer_1" xmlns="http://www.w3.org/2000/svg" xmlns:xlink="http://www.w3.org/1999/xlink" x="0px" y="0px"
	 viewBox="0 0 85 85" style="enable-background:new 0 0 85 85;" xml:space="preserve">
<style type="text/css">
	.st0{fill:#CCCCCC;stroke:#000000;stroke-miterlimit:10;}
	.st1{fill:#E6E6E6;stroke:#000000;stroke-miterlimit:10;}
	.st2{stroke:#000000;stroke-miterlimit:10;}
	.st3{fill:#4D4D4D;stroke:#4D4D4D;stroke-miterlimit:10;}
	.st4{fill:none;stroke:#FFFFFF;stroke-linecap:round;stroke-miterlimit:10;}
	.st5{fill:#ED1C24;}
	.st6{fill:none;stroke:#FF0000;stroke-linecap:round;stroke-miterlimit:10;}
	.st7{fill:none;stroke:#00FF00;stroke-linecap:round;stroke-miterlimit:10;}
	.st8{fill:none;stroke:#FBB03B;stroke-linecap:round;stroke-miterlimit:10;}
	.st9{fill:#FBB03B;}
	.st10{fill:#00FFFF;stroke:#00FFFF;stroke-width:2;stroke-linecap:round;stroke-miterlimit:10;}
	.st11{fill:#94B2FF;stroke:#94B2FF;stroke-width:2;stroke-linecap:round;stroke-miterlimit:10;}
	.st12{fill:#9B35FF;stroke:#9B35FF;stroke-width:2;stroke-linecap:round;stroke-miterlimit:10;}
	.st13{fill:#FF00FF;stroke:#FF00FF;stroke-width:2;stroke-linecap:round;stroke-miterlimit:10;}
	.st14{font-family:'CourierNewPS-BoldMT';}
	.st15{font-size:20.5855px;}
</style>
<g>
	<path class="st0" d="M63.9,24.9c0.2,0.5,0.4,1.4,0.2,2.4c-0.3,1.2-1,1.8-2,2.8c-0.7,0.7-1.8,1.6-3.4,2.4l0.3-0.2
		c1.2-1.1,2-2.1,2.7-2.8c0.9-1.1,1.3-1.7,1.3-2.5c0-0.6-0.2-1-0.4-1.3"/>
	<path class="st0" d="M59.6,18.2c-0.4-0.3-1.2-0.9-2.2-1c-1.2-0.2-2.1,0.3-3.3,0.9c-0.9,0.4-2.1,1.2-3.4,2.4l0.3-0.2
		c1.4-0.7,2.6-1.2,3.6-1.5c1.3-0.5,2.1-0.6,2.8-0.3c0.5,0.2,0.9,0.6,1.1,0.8"/>
	<path class="st1" d="M47.8,28c0.8-1,1.5-2.1,1.5-2.1c0.4-0.6,0.6-1,0.8-1.3L50,24.7c1-1.3,1.9-2,2.7-2.5c2.1-1.4,3.2-1.1,5.6-2.7
		c0.8-0.6,1.7-1.3,2.2-2.6c0.2-0.5,0.2-0.9,0.3-1.1c0.5-1.2,1.3-2.8,2.8-4.1c3.2-2.8,7.1-2.4,7.8-2.2c0.9,0.2,1.5,0.7,1.5,0.7
		c0.2,0.1,0.3,0.3,0.4,0.4c0.1,0.1,0.2,0.2,0.3,0.4c0.6,0.9,0.4,1.2,0.8,1.8c0.4,0.6,1.1,0.9,1.6,1.4c0.1,0.2,0.2,0.4,0.2,0.4
		c0,0,0,0,0,0c0,0,0.1,0.3,0.2,0.6c0,0.2-0.4,5.2-4.9,7.8c-0.9,0.5-2.6,1.4-5.2,1.4c-0.3,0-0.7,0.1-1,0.1c-0.6,0.2-1.6,0.5-2.7,1.1
		c-2.2,1.3-2.7,2.7-4.9,4.2c-0.7,0.4-1.7,1-3.1,1.5l0.2-0.1c-0.4,0.1-0.9,0.2-1.6,0.3c0,0-1.2,0.3-2.5,0.6c-1.1,0.6-2.6,1.7-4.4,3.1
		c-1.8,1.4-2.3,2-5.3,4.6c-3,2.6-4.5,3.9-5.9,4.8c-0.5,0.3-2.6,1.6-5.8,2.6c-3.4,1.1-4,0.3-7.6,1.4c-2.5,0.8-4.4,1.8-5.3,2.3
		c-1.7,0.9-2.9,1.8-4.2,2.8c-6,4.5-8,6.9-8.2,6.6c-0.5-0.4,6.6-10.3,13-13.2c1.9-0.9,3.8-1.5,3.8-1.5c2.7-0.9,3.6-0.8,5.8-1.6
		c1.4-0.5,3.3-1.2,5.4-2.4c1.9-1.1,1.9-1.6,5.9-5.3c0.8-0.7,3.1-2.8,5.9-5.2C45.4,29.8,46.8,28.7,47.8,28z"/>
	<path class="st2" d="M69.9,16.9c-1.7,2.1-1.9,4.8-0.5,5.9c1.2,1,3.7,0.4,4.7-0.8c0.1-0.2,0.4-0.6,1-1.5c0.6-0.9,0.9-1.4,1-1.6
		c0.5-1.1,0.4-2.9-0.5-3.7C74.2,14,71.3,15.1,69.9,16.9z"/>
	<path class="st2" d="M68.7,15c-2.6,0.9-5.1,0.1-5.7-1.6c-0.5-1.5,0.9-3.6,2.4-4.2c0.2-0.1,0.7-0.2,1.8-0.4c1.1-0.2,1.6-0.3,1.8-0.3
		c1.2,0,2.9,0.7,3.3,1.8C72.9,12,70.9,14.3,68.7,15z"/>
	<ellipse transform="matrix(0.8217 -0.5699 0.5699 0.8217 -4.8291 36.1449)" class="st3" cx="55.4" cy="25.8" rx="4" ry="2.1"/>
	<path class="st4" d="M57.4,24c-0.3,0-0.8,0-1.3,0.1c-0.9,0.2-1.5,0.7-1.8,1"/>
	<circle class="st5" cx="67.7" cy="11.6" r="1.5"/>
	<circle class="st5" cx="72.9" cy="18.8" r="1.5"/>
	<line class="st6" x1="74.3" y1="9.1" x2="59.8" y2="12.8"/>
	<line class="st7" x1="77.5" y1="13.4" x2="69" y2="25.7"/>
	<g>
		<g>
			<line class="st8" x1="73.6" y1="13.1" x2="81.2" y2="7.9"/>
			<g>
				<path class="st9" d="M79.4,12.8c-0.2-0.1-0.2-0.3-0.2-0.4L81.1,8l-4.8,0.1C76.1,8.1,76,8,76,7.8c0-0.2,0.1-0.3,0.3-0.3l5.3-0.2
					c0.1,0,0.2,0,0.3,0.1s0.1,0.2,0,0.3l-2.1,4.9c0,0.1-0.1,0.1-0.1,0.1C79.6,12.9,79.5,12.9,79.4,12.8z"/>
			</g>
		</g>
	</g>
	<circle class="st10" cx="46.2" cy="32.6" r="2.5"/>
	<circle class="st11" cx="35.5" cy="41.3" r="2.5"/>
	<circle class="st12" cx="23" cy="46.6" r="2.2"/>
	<circle class="st13" cx="10.6" cy="53.4" r="2.1"/>
	<text transform="matrix(1 0 0 1 5.8618 77.0738)" class="st14 st15">BonZeb</text>
</g>
</svg>
