<?xml version="1.0" encoding="utf-8"?>
<!-- Generator: Adobe Illustrator 22.0.1, SVG Export Plug-In . SVG Version: 6.00 Build 0)  -->
<svg version="1.1" id="Layer_1" xmlns="http://www.w3.org/2000/svg" xmlns:xlink="http://www.w3.org/1999/xlink" x="0px" y="0px"
	 viewBox="0 0 85 85" style="enable-background:new 0 0 85 85;" xml:space="preserve">
<style type="text/css">
	.st0{fill:none;stroke:#000000;stroke-width:0.5;stroke-miterlimit:10;}
	.st1{font-family:'CourierNewPS-BoldMT';}
	.st2{font-size:21px;}
	.st3{fill:none;stroke:#3CFF00;stroke-miterlimit:10;}
	.st4{fill:#FF0000;stroke:#000000;stroke-width:0.5;stroke-miterlimit:10;}
	.st5{fill:none;stroke:#000000;stroke-width:2;stroke-miterlimit:10;}
	.st6{fill:none;stroke:#000000;stroke-width:2;stroke-miterlimit:10;stroke-dasharray:1.0064,1.0064;}
	.st7{fill:none;stroke:#000000;stroke-width:2;stroke-miterlimit:10;stroke-dasharray:1;}
	.st8{fill:#00E7FF;stroke:#000000;stroke-width:0.5;stroke-miterlimit:10;}
	.st9{fill:none;stroke:#000000;stroke-miterlimit:10;}
</style>
<path class="st0" d="M53.7,81.2"/>
<text transform="matrix(1 0 0 1 6.4999 78.0375)" class="st1 st2">BonZeb</text>
<line class="st3" x1="73.3" y1="56.8" x2="49.5" y2="52"/>
<circle class="st4" cx="61.4" cy="54.4" r="2.4"/>
<g>
	<g>
		<path class="st5" d="M59.3,40.1c-0.1-0.1-0.2-0.3-0.3-0.4"/>
		<path class="st6" d="M58.3,39c-2.3-2.6-5.7-5.5-10.4-6.9c-9.9-3-16.7,3.3-23.6-0.1c-3-1.5-6.5-5-8.2-14.4"/>
		<path class="st5" d="M16,17c0-0.2-0.1-0.3-0.1-0.5"/>
	</g>
</g>
<line class="st7" x1="61.1" y1="38.8" x2="74.3" y2="40.1"/>
<circle class="st8" cx="57.7" cy="37.8" r="2.4"/>
<circle class="st8" cx="49.6" cy="32.4" r="2.1"/>
<circle class="st8" cx="38.3" cy="31.4" r="1.8"/>
<circle class="st8" cx="25.1" cy="32.6" r="1.6"/>
<circle class="st8" cx="18.2" cy="24.9" r="1.3"/>
<circle class="st8" cx="15.9" cy="15.6" r="1"/>
<path class="st9" d="M57.2,49.9c-1-3.3-3.1-7.8-7.4-10.6c-8.4-5.5-17.5,1.2-26.1-3.1c-4.1-2.1-8.8-6.9-11.4-19l-6.8-4.8l9.4,0.1
	L21,6.9l-2.1,7.3C19.4,18,20.9,23,25,26c6.7,4.9,14.8-0.2,26.6,1.7C56.8,28.5,64,30.9,72,37.8"/>
<ellipse transform="matrix(0.2579 -0.9662 0.9662 0.2579 -6.9847 99.6517)" class="st9" cx="61.4" cy="54.4" rx="4" ry="8.8"/>
<path class="st9" d="M79.1,47.2c0.2,0.8,0.9,4.1-0.9,7.1c-2,3.4-6.4,5.2-10.9,4.3"/>
<ellipse transform="matrix(0.9966 -8.182240e-02 8.182240e-02 0.9966 -3.0417 6.3697)" class="st9" cx="76.2" cy="40.3" rx="4" ry="8.8"/>
<line class="st3" x1="74.6" y1="28.3" x2="77.7" y2="52.4"/>
<circle class="st4" cx="76.2" cy="40.5" r="2.4"/>
<line class="st7" x1="58.4" y1="40.8" x2="61.8" y2="52"/>
</svg>
