<?xml version="1.0" encoding="utf-8"?>
<!-- Generator: Adobe Illustrator 22.0.1, SVG Export Plug-In . SVG Version: 6.00 Build 0)  -->
<svg version="1.1" id="Layer_1" xmlns="http://www.w3.org/2000/svg" xmlns:xlink="http://www.w3.org/1999/xlink" x="0px" y="0px"
	 viewBox="0 0 240.3 229.3" style="enable-background:new 0 0 240.3 229.3;" xml:space="preserve">
<style type="text/css">
	.st0{fill:#CCCCCC;stroke:#000000;stroke-miterlimit:10;}
	.st1{fill:#E6E6E6;stroke:#000000;stroke-miterlimit:10;}
	.st2{stroke:#000000;stroke-miterlimit:10;}
	.st3{fill:#4D4D4D;stroke:#4D4D4D;stroke-miterlimit:10;}
	.st4{fill:none;stroke:#FFFFFF;stroke-linecap:round;stroke-miterlimit:10;}
	.st5{fill:#ED1C24;}
	.st6{fill:none;stroke:#FF0000;stroke-linecap:round;stroke-miterlimit:10;}
	.st7{fill:none;stroke:#00FF00;stroke-linecap:round;stroke-miterlimit:10;}
	.st8{fill:none;stroke:#FBB03B;stroke-linecap:round;stroke-miterlimit:10;}
	.st9{fill:#FBB03B;}
	.st10{fill:#00FFFF;stroke:#00FFFF;stroke-width:2;stroke-linecap:round;stroke-miterlimit:10;}
	.st11{fill:#94B2FF;stroke:#94B2FF;stroke-width:2;stroke-linecap:round;stroke-miterlimit:10;}
	.st12{fill:#9B35FF;stroke:#9B35FF;stroke-width:2;stroke-linecap:round;stroke-miterlimit:10;}
	.st13{fill:#FF00FF;stroke:#FF00FF;stroke-width:2;stroke-linecap:round;stroke-miterlimit:10;}
	.st14{font-family:'CourierNewPS-BoldMT';}
	.st15{font-size:60.7131px;}
</style>
<g>
	<path class="st0" d="M181,57.9c0.5,1.5,1.2,4.1,0.5,7.1c-0.8,3.4-3,5.4-6,8.3c-2.1,2-5.4,4.6-10,7l0.9-0.5c3.4-3.2,6-6.1,7.8-8.4
		c2.6-3.2,3.8-5.1,3.7-7.5c0-1.6-0.6-3-1.1-3.8"/>
	<path class="st0" d="M168.3,38.2c-1.2-1-3.4-2.6-6.4-3c-3.5-0.4-6.1,0.9-9.9,2.8c-2.6,1.3-6.2,3.4-10,7l0.8-0.7
		c4.2-2.1,7.8-3.5,10.6-4.4c4-1.3,6.1-1.7,8.3-0.9c1.5,0.6,2.6,1.6,3.2,2.4"/>
	<path class="st1" d="M133.3,67.2c2.3-3.1,4.3-6.2,4.3-6.2c1.1-1.6,1.9-3,2.4-4l-0.2,0.2c2.9-3.7,5.7-6,7.8-7.3
		c6.2-4.1,9.5-3.1,16.4-8.1c2.3-1.7,5-4,6.5-7.6c0.6-1.5,0.6-2.5,1-3.4c1.4-3.5,3.8-8.2,8.4-12.1c9.6-8.2,21-7,23-6.5
		c2.6,0.6,4.4,2,4.4,2c0.6,0.4,1,0.8,1.3,1.1c0.2,0.2,0.5,0.6,0.8,1.1c1.8,2.8,1.2,3.7,2.3,5.3c1.3,1.9,3.3,2.5,4.6,4.3
		c0.4,0.6,0.7,1.2,0.7,1.2c0,0,0,0,0,0c0,0,0.3,0.8,0.5,1.7c0.1,0.7-1.2,15.3-14.5,23c-2.6,1.5-7.8,4-15.3,4.2
		c-1,0.1-1.9,0.3-2.9,0.4c-1.9,0.5-4.8,1.4-8,3.3c-6.5,3.8-8,8-14.5,12.4c-1.9,1.3-4.9,3-9.2,4.4l0.6-0.2c-1.1,0.2-2.8,0.5-4.8,1
		c0,0-3.6,0.8-7.3,1.9c-3.1,1.9-7.7,4.9-13,9c-5.3,4.1-6.7,5.8-15.6,13.5c-8.8,7.7-13.2,11.5-17.3,14c-1.4,0.9-7.8,4.7-17.1,7.8
		c-10.2,3.3-11.8,0.9-22.4,4.2c-7.4,2.3-12.9,5.3-15.7,6.9c-5,2.8-8.7,5.4-12.5,8.2c-17.8,13.3-23.6,20.3-24.3,19.6
		c-1.5-1.3,19.5-30.2,38.3-38.8c5.6-2.6,11.3-4.5,11.3-4.5c7.9-2.6,10.6-2.3,17-4.6c4.3-1.5,9.8-3.5,15.8-7.2
		c5.5-3.4,5.7-4.7,17.5-15.6c2.4-2.2,9.2-8.4,17.5-15.2C126.3,72.6,130.5,69.3,133.3,67.2z"/>
	<path class="st2" d="M198.5,34.3c-5,6.2-5.7,14-1.5,17.4c3.7,2.9,11,1.1,14-2.4c0.4-0.5,1.3-1.8,2.9-4.5c1.7-2.7,2.5-4.1,2.8-4.7
		c1.4-3.4,1.1-8.7-1.6-10.9C211.3,25.8,202.7,28.9,198.5,34.3z"/>
	<path class="st2" d="M195.1,28.9c-7.6,2.5-15.1,0.4-16.8-4.7c-1.5-4.5,2.8-10.7,7.1-12.2c0.6-0.2,2.2-0.5,5.2-1.2
		c3.1-0.6,4.7-1,5.4-1c3.6-0.1,8.5,2,9.7,5.3C207.5,19.9,201.5,26.8,195.1,28.9z"/>
	<ellipse transform="matrix(0.8217 -0.5699 0.5699 0.8217 -6.7825 99.5495)" class="st3" cx="155.7" cy="60.6" rx="11.9" ry="6.2"/>
	<path class="st4" d="M161.7,55.4c-1-0.1-2.3-0.1-3.9,0.3c-2.7,0.7-4.5,2.1-5.4,3"/>
	<circle class="st5" cx="192" cy="18.7" r="4.4"/>
	<circle class="st5" cx="207.3" cy="40" r="4.4"/>
	<line class="st6" x1="211.5" y1="11.3" x2="168.8" y2="22.3"/>
	<line class="st7" x1="221.1" y1="24.2" x2="195.9" y2="60.2"/>
	<g>
		<g>
			<line class="st8" x1="209.4" y1="23.2" x2="231.9" y2="7.9"/>
			<g>
				<path class="st9" d="M230.1,12.8c-0.2-0.1-0.2-0.3-0.2-0.4l1.9-4.4L227,8.1c-0.2,0-0.3-0.1-0.3-0.3c0-0.2,0.1-0.3,0.3-0.3
					l5.3-0.2c0.1,0,0.2,0,0.3,0.1c0.1,0.1,0.1,0.2,0,0.3l-2.1,4.9c0,0.1-0.1,0.1-0.1,0.1C230.3,12.9,230.2,12.9,230.1,12.8z"/>
			</g>
		</g>
	</g>
	<circle class="st10" cx="128.8" cy="80.7" r="7.4"/>
	<circle class="st11" cx="97.1" cy="106.5" r="7.2"/>
	<circle class="st12" cx="60.4" cy="121.9" r="6.5"/>
	<circle class="st13" cx="23.8" cy="142.1" r="6.3"/>
	<text transform="matrix(1 0 0 1 9.7451 211.8649)" class="st14 st15">BonZeb</text>
</g>
</svg>
