<?xml version="1.0" standalone="yes"?><!DOCTYPE svg PUBLIC "-//W3C//DTD SVG 1.1//EN" "http://www.w3.org/Graphics/SVG/1.1/DTD/svg11.dtd"[
<!ENTITY E16 'stroke:none;opacity:1;fill:rgb(68,154,223);'><!ENTITY E3 'stroke:rgb(169,169,169);fill:none;stroke-linecap:butt;stroke-miterlimit:9;opacity:1;stroke-width:2;stroke-linejoin:miter;'><!ENTITY E9 'matrix(1.00 0.00 0.00 1.00 0.00 0.00 ) '><!ENTITY E18 'stroke:none;fill-rule:evenodd;opacity:1;fill:rgb(255,255,255);'><!ENTITY E5 'stroke:none;opacity:1;fill:rgb(91,178,126);'><!ENTITY E7 'stroke:rgb(255,255,255);fill:none;stroke-linecap:butt;stroke-miterlimit:9;opacity:1;stroke-width:2;stroke-linejoin:miter;'><!ENTITY E27 'matrix(1.50 0.00 0.00 1.50 6.00 126.00 ) '><!ENTITY E23 'matrix(1.50 0.00 0.00 1.50 126.00 126.00 ) '><!ENTITY E4 'matrix(1.50 0.00 0.00 1.50 366.00 6.00 ) '><!ENTITY E15 'matrix(1.50 0.00 0.00 1.50 246.00 126.00 ) '><!ENTITY E11 'matrix(1.50 0.00 0.00 1.50 366.00 126.00 ) '><!ENTITY E6 'M 15.011 14.916 15.15146 23.9388 M 23.14376 10.5618 15.01096 14.9158 6.97086 10.5618 M 6.924747 10.5618 15.15145 5.893101 23.14375 10.5618 23.14375 19.2433 15.15145 23.9386 6.924747 19.2433 z '><!ENTITY E1 'stroke:rgb(169,169,169);fill:none;stroke-linecap:butt;stroke-miterlimit:9;opacity:1;stroke-width:1.5;stroke-linejoin:miter;'><!ENTITY E2 'M 31.179 5.2 C 34.9985 11.0918 34.9814 18.682 31.13552 24.557 '>
]><svg width="473.5755" height="238.8281" id="SvgGdi_output" xmlns="http://www.w3.org/2000/svg"><rect id="background" height="100.00%" style="fill:rgb(255,255,255);" width="100.00%" y="0.00" x="0.00" /><g style="shape-rendering:auto;" id="root_group"><line y1="148.50" style="&E1;" id="49" x2="360.00" y2="148.50" x1="297.00" /><line y1="148.50" style="&E1;" id="50" x2="240.00" y2="148.50" x1="177.00" /><line y1="148.50" style="&E1;" id="51" x2="120.00" y2="148.50" x1="57.00" /><path d="&E2;" style="&E3;" transform="&E4;" id="52" /><ellipse id="53" cy="15.00" cx="15.00" transform="&E4;" rx="15.00" ry="15.00" style="&E5;" /><path d="&E6;" style="&E7;" transform="&E4;" id="54" /><text id="55" transform="&E9;" x="366.00" y="58.50" style="stroke:none;clip-path:url(#57_text_clipper);font-family:Microsoft Sans Serif;fill:rgb(0,0,0);font-size:12.00pt;opacity:1;"><tspan dy="12.00pt" id="59">UpdateFrame</tspan></text><path style="&E3;" transform="&E11;" id="61" d="M 10.158 33.2 C 3.4054 31.7591 -1.861 26.4692 -3.271 19.71 " /><ellipse id="62" cy="15.00" cx="15.00" transform="&E11;" rx="15.00" ry="15.00" style="stroke:none;opacity:1;fill:rgb(155,91,179);" /><path d="&E6;" style="&E7;" transform="&E11;" id="63" /><text id="64" transform="&E9;" x="366.00" y="178.50" style="stroke:none;clip-path:url(#66_text_clipper);font-family:Microsoft Sans Serif;fill:rgb(0,0,0);font-size:12.00pt;opacity:1;"><tspan dy="12.00pt" id="68">Update</tspan></text><text id="70" transform="&E9;" x="366.00" y="196.61" style="stroke:none;clip-path:url(#72_text_clipper);font-family:Microsoft Sans Serif;fill:rgb(0,0,0);font-size:12.00pt;opacity:1;"><tspan dy="12.00pt" id="74">Uniform</tspan></text><ellipse id="76" cy="15.00" cx="15.00" transform="&E15;" rx="15.00" ry="15.00" style="&E16;" /><path style="&E18;" transform="&E15;" id="77" d="M 10.824 9.4752 3.5613 15.0588 10.824 20.6107 10.81521 18.3247 6.519011 15.0267 10.82391 11.7422 z " /><path style="&E18;" transform="&E15;" id="78" d="M 15.365 7.2336 C 15.34647 7.33547 15.32125 7.4371 15.31422 7.5375 14.41077 12.6441 13.49692 17.7495 12.59942 22.8575 12.59508 22.88635 12.6018 22.91223 12.59942 22.94062 L 14.62872 22.94062 C 14.70348 22.53324 14.73679 22.1026 14.8377 21.71462 15.68204 16.94102 16.5365 12.17012 17.3748 7.394619 17.38163 7.340435 17.37866 7.287239 17.3787 7.233579 z " /><path style="&E18;" transform="&E15;" id="79" d="M 19.044 9.4746 26.3067 15.0582 19.044 20.6101 19.05279 18.3241 23.34899 15.0261 19.04409 11.7416 z " /><text id="80" transform="&E9;" x="246.00" y="178.50" style="stroke:none;clip-path:url(#82_text_clipper);font-family:Microsoft Sans Serif;fill:rgb(0,0,0);font-size:12.00pt;opacity:1;"><tspan dy="12.00pt" id="84">Expression</tspan></text><text id="86" transform="&E9;" x="246.00" y="196.61" style="stroke:none;clip-path:url(#88_text_clipper);font-family:Microsoft Sans Serif;fill:rgb(0,0,0);font-size:12.00pt;opacity:1;"><tspan dy="12.00pt" id="90">Transform</tspan></text><ellipse id="92" cy="15.00" cx="15.00" transform="&E23;" rx="15.00" ry="15.00" style="&E16;" /><path d="&E6;" style="&E7;" transform="&E23;" id="93" /><text id="94" transform="&E9;" x="126.00" y="178.50" style="stroke:none;clip-path:url(#96_text_clipper);font-family:Microsoft Sans Serif;fill:rgb(0,0,0);font-size:12.00pt;opacity:1;"><tspan dy="12.00pt" id="98">Normalized</tspan></text><text id="100" transform="&E9;" x="126.00" y="196.61" style="stroke:none;clip-path:url(#102_text_clipper);font-family:Microsoft Sans Serif;fill:rgb(0,0,0);font-size:12.00pt;opacity:1;"><tspan dy="12.00pt" id="104">Device</tspan></text><text id="106" transform="&E9;" x="126.00" y="214.72" style="stroke:none;clip-path:url(#108_text_clipper);font-family:Microsoft Sans Serif;fill:rgb(0,0,0);font-size:12.00pt;opacity:1;"><tspan dy="12.00pt" id="110">Coordinates</tspan></text><path d="&E2;" style="&E3;" transform="&E27;" id="112" /><ellipse id="113" cy="15.00" cx="15.00" transform="&E27;" rx="15.00" ry="15.00" style="&E5;" /><path d="&E6;" style="&E7;" transform="&E27;" id="114" /><text id="115" transform="&E9;" x="6.00" y="178.50" style="stroke:none;clip-path:url(#117_text_clipper);font-family:Microsoft Sans Serif;fill:rgb(0,0,0);font-size:12.00pt;opacity:1;"><tspan dy="12.00pt" id="119">MouseMove</tspan></text></g><defs id="clips_hatches_and_gradients"><clipPath id="57_text_clipper"><rect x="366.00" y="58.50" width="106.08" height="20.11" id="58" /></clipPath><clipPath id="66_text_clipper"><rect x="366.00" y="178.50" width="63.11" height="40.22" id="67" /></clipPath><clipPath id="72_text_clipper"><rect x="366.00" y="196.61" width="63.11" height="40.22" id="73" /></clipPath><clipPath id="82_text_clipper"><rect x="246.00" y="178.50" width="86.95" height="40.22" id="83" /></clipPath><clipPath id="88_text_clipper"><rect x="246.00" y="196.61" width="86.95" height="40.22" id="89" /></clipPath><clipPath id="96_text_clipper"><rect x="126.00" y="178.50" width="94.28" height="60.33" id="97" /></clipPath><clipPath id="102_text_clipper"><rect x="126.00" y="196.61" width="94.28" height="60.33" id="103" /></clipPath><clipPath id="108_text_clipper"><rect x="126.00" y="214.72" width="94.28" height="60.33" id="109" /></clipPath><clipPath id="117_text_clipper"><rect x="6.00" y="178.50" width="95.09" height="20.11" id="118" /></clipPath></defs></svg>