<?xml version="1.0" standalone="no"?>
<!DOCTYPE svg PUBLIC "-//W3C//DTD SVG 20010904//EN"
 "http://www.w3.org/TR/2001/REC-SVG-20010904/DTD/svg10.dtd">
<svg version="1.0" xmlns="http://www.w3.org/2000/svg"
 width="960.000000pt" height="960.000000pt" viewBox="0 0 960.000000 960.000000"
 preserveAspectRatio="xMidYMid meet">
<metadata>
Created by potrace 1.11, written by Peter Selinger 2001-2013
</metadata>
<g transform="translate(0.000000,960.000000) scale(0.100000,-0.100000)"
fill="#000000" stroke="none">
<path d="M9120 7925 c0 -6 -40 -11 -97 -11 -207 -3 -364 -9 -374 -14 -15 -10
-19 -48 -5 -59 11 -9 263 -8 439 1 26 2 47 1 47 -2 -1 -5 -28 -24 -295 -204
-82 -56 -151 -104 -153 -108 -2 -5 -10 -8 -17 -8 -7 0 -15 -3 -17 -7 -5 -12
-185 -133 -197 -133 -6 0 -10 3 -9 8 5 25 -63 150 -106 193 -21 22 -36 39 -32
39 25 0 175 46 189 58 21 18 22 50 2 76 -17 22 -58 24 -125 6 -25 -7 -53 -12
-62 -12 -10 0 -18 -3 -18 -9 0 -5 -8 -9 -18 -9 -10 0 -44 -7 -75 -15 l-58 -15
-53 30 c-96 55 -236 81 -316 60 -38 -10 -74 -17 -130 -26 -19 -3 -44 -8 -55
-11 -11 -3 -29 -7 -40 -9 -11 -2 -35 -7 -54 -13 -19 -6 -37 -8 -42 -6 -4 3
-10 1 -14 -5 -3 -5 -14 -10 -24 -10 -32 0 -109 -50 -169 -109 -32 -31 -59 -58
-59 -61 0 -3 -13 -26 -29 -53 -29 -47 -40 -54 -126 -73 -10 -2 -28 -7 -40 -10
-13 -3 -30 -7 -38 -9 -8 -2 -15 -4 -15 -5 0 -1 -7 -3 -15 -5 -116 -23 -198
-50 -218 -72 -25 -27 -22 -58 6 -81 18 -14 71 -13 90 1 6 5 12 7 12 4 0 -4
122 27 190 48 16 5 19 3 13 -12 -4 -10 -9 -20 -13 -23 -16 -13 -72 -103 -108
-176 -53 -104 -66 -138 -82 -204 -13 -52 -27 -84 -72 -157 -23 -39 -27 -40
-58 -10 -14 12 -26 21 -27 20 -1 -1 -27 9 -58 23 -30 14 -65 26 -78 28 -12 1
-27 5 -32 7 -12 6 -117 3 -160 -5 -65 -12 -288 -110 -327 -144 -10 -8 -18 -12
-18 -9 0 5 -49 -25 -124 -75 -31 -22 -119 -91 -153 -122 -34 -30 -44 -66 -18
-66 8 0 15 4 15 9 0 6 168 91 190 96 7 1 199 75 225 86 11 5 61 19 110 32 138
37 232 27 293 -30 7 -7 18 -13 23 -13 25 0 2 -23 -68 -68 -67 -42 -161 -92
-185 -98 -5 -1 -10 -3 -13 -4 -3 -1 -8 -3 -12 -5 -5 -1 -17 -5 -28 -10 -87
-35 -135 -53 -135 -50 0 7 -146 -68 -188 -96 -24 -16 -45 -29 -48 -29 -13 0
-106 -81 -184 -160 -49 -50 -103 -118 -129 -161 -46 -78 -112 -181 -122 -189
-3 -3 -8 -10 -10 -15 -12 -31 -108 -155 -137 -176 -31 -23 -44 -33 -89 -69
-10 -8 -48 -37 -83 -65 -36 -27 -74 -58 -84 -67 -11 -10 -26 -18 -33 -18 -8 0
-11 -4 -8 -10 3 -5 1 -10 -4 -10 -9 0 -253 -189 -271 -209 -3 -3 -32 -28 -65
-56 -33 -27 -73 -62 -90 -76 -16 -15 -55 -48 -85 -74 -30 -26 -84 -74 -120
-106 -36 -31 -75 -66 -86 -76 -31 -26 -206 -188 -283 -260 -36 -35 -69 -63
-73 -63 -5 0 -8 -7 -8 -15 0 -8 -3 -15 -8 -15 -4 0 -19 -11 -33 -24 -15 -14
-46 -30 -69 -36 -65 -17 -170 -91 -170 -120 0 -5 -4 -10 -8 -10 -8 0 -52 -91
-52 -108 -1 -27 -292 -193 -490 -279 -114 -50 -352 -134 -422 -149 -5 -1 -9
-3 -10 -4 -11 -10 -63 -6 -86 6 -15 7 -33 14 -39 14 -7 0 -13 3 -13 8 0 13
-123 11 -173 -3 -26 -8 -62 -24 -80 -36 -36 -25 -87 -78 -87 -91 0 -10 -42
-38 -66 -43 -29 -6 -215 -76 -279 -105 -71 -32 -120 -53 -123 -51 -3 2 -121
-62 -214 -117 -83 -49 -268 -182 -333 -241 -127 -113 -132 -116 -199 -118 -67
-1 -172 -41 -183 -69 -3 -8 -11 -14 -19 -14 -8 0 -14 -5 -14 -12 0 -6 -9 -21
-19 -32 -28 -31 -53 -114 -50 -170 3 -45 0 -53 -38 -95 -67 -76 -148 -173
-201 -240 -15 -19 -45 -57 -67 -85 -22 -28 -53 -71 -70 -96 -16 -25 -34 -49
-38 -55 -59 -74 -127 -208 -120 -236 10 -36 49 -22 130 48 43 37 80 70 83 73
3 3 39 34 80 70 41 36 85 75 97 87 12 13 26 23 30 23 5 0 16 8 24 17 18 20 30
31 149 127 47 38 91 76 99 84 9 9 23 11 40 7 60 -16 167 -9 214 14 101 49 173
163 169 266 -1 26 7 35 66 75 37 25 69 48 72 51 3 4 21 16 40 27 19 11 66 38
104 62 84 51 117 70 209 118 40 20 73 40 75 45 2 4 8 7 13 7 5 0 26 7 47 17
20 9 39 17 42 17 3 1 21 9 40 18 36 17 79 34 92 37 4 1 29 11 55 22 46 20 91
36 123 44 8 2 20 4 25 6 6 1 28 -5 50 -16 101 -46 241 -19 327 64 37 35 50 41
88 42 153 4 402 58 527 115 17 8 38 14 47 14 9 0 16 5 16 10 0 6 3 9 8 8 21
-7 335 135 442 201 19 11 42 24 50 28 8 4 45 26 81 49 36 24 77 44 90 46 38 5
159 83 159 103 0 3 9 16 20 28 12 12 23 31 26 43 3 12 16 27 30 34 13 8 24 17
24 22 0 4 7 8 17 8 9 0 14 3 10 6 -3 3 19 26 49 51 31 24 63 52 73 61 10 9 44
40 76 67 32 28 63 55 69 60 6 6 49 44 96 84 47 41 92 80 100 88 8 8 33 30 55
49 62 54 144 127 169 149 12 11 46 40 76 65 29 25 63 54 74 65 12 11 42 22 71
26 47 7 87 15 93 19 1 2 5 3 10 4 20 3 100 57 122 82 32 36 71 100 65 105 -23
23 201 167 285 183 14 3 48 12 75 21 28 8 51 15 53 14 1 -1 42 8 90 19 48 11
121 28 162 37 72 17 258 94 291 122 8 7 21 13 27 13 7 0 12 5 12 10 0 6 7 10
15 10 8 0 15 5 15 11 0 5 4 8 9 5 5 -4 11 -3 13 1 1 5 28 26 58 49 30 22 125
110 210 194 162 160 296 268 288 233 -1 -5 5 -21 12 -38 23 -54 18 -143 -13
-210 -15 -32 -34 -66 -42 -75 -8 -8 -43 -51 -77 -95 -35 -43 -74 -91 -88 -106
-105 -112 -162 -170 -202 -205 -34 -29 -44 -44 -38 -55 11 -17 40 -4 180 86
145 93 340 269 410 370 25 36 59 104 65 130 16 63 25 195 14 195 -3 0 -6 12
-7 28 -1 15 -4 43 -8 62 -4 19 -3 32 1 28 4 -3 26 1 48 11 45 19 155 37 277
46 72 5 209 32 277 53 30 10 32 9 24 -7 -6 -10 -17 -23 -25 -30 -9 -8 -13 -17
-10 -22 3 -5 1 -9 -5 -9 -5 0 -20 -18 -32 -40 -13 -22 -26 -40 -30 -40 -9 0
-22 -41 -19 -65 3 -28 16 -42 46 -48 25 -4 74 24 74 44 0 5 8 18 18 28 9 10
51 69 92 130 41 60 82 112 90 115 8 3 38 8 65 12 28 3 55 9 60 12 6 4 16 7 23
8 20 3 125 56 139 70 7 7 23 21 36 31 21 16 68 80 104 138 6 11 41 68 77 127
86 138 102 175 111 260 3 20 5 40 6 45 1 4 1 10 0 13 -3 6 -12 106 -13 140 -1
17 31 71 94 160 100 142 112 167 94 192 -41 55 -82 38 -151 -62 -43 -64 -50
-71 -60 -54 -13 24 -95 104 -129 127 -15 10 -26 23 -24 28 2 4 62 48 133 97
262 178 530 359 541 365 6 3 -23 -71 -63 -166 -96 -221 -96 -220 -99 -232 -2
-5 -6 -20 -9 -32 -5 -16 -1 -24 15 -33 19 -10 25 -9 40 6 9 11 59 116 109 234
51 118 98 229 106 245 53 119 58 140 41 154 -12 10 -24 12 -81 11 -11 0 -31 0
-45 0 -14 0 -36 -2 -50 -3 -14 -1 -28 2 -32 8 -5 6 -8 7 -8 0z"/>
</g>
</svg>
