<?xml version="1.0" encoding="utf-8"?>
<!-- Generator: Adobe Illustrator 22.0.1, SVG Export Plug-In . SVG Version: 6.00 Build 0)  -->
<svg version="1.1" id="Layer_1" xmlns="http://www.w3.org/2000/svg" xmlns:xlink="http://www.w3.org/1999/xlink" x="0px" y="0px"
	 viewBox="0 0 85 85" style="enable-background:new 0 0 85 85;" xml:space="preserve">
<style type="text/css">
	.st0{fill:none;stroke:#000000;stroke-width:0.5;stroke-miterlimit:10;}
	.st1{font-family:'CourierNewPS-BoldMT';}
	.st2{font-size:21px;}
	.st3{fill:none;stroke:#000000;stroke-miterlimit:10;}
	.st4{fill:none;stroke:#000000;stroke-width:2;stroke-miterlimit:10;}
	.st5{fill:none;stroke:#000000;stroke-width:2;stroke-miterlimit:10;stroke-dasharray:1.0064,1.0064;}
	.st6{fill:none;stroke:#000000;stroke-width:2;stroke-miterlimit:10;stroke-dasharray:1;}
	.st7{fill:#00E7FF;stroke:#000000;stroke-width:0.5;stroke-miterlimit:10;}
	.st8{fill:none;stroke:#3CFF00;stroke-miterlimit:10;}
	.st9{fill:#FF0000;stroke:#000000;stroke-width:0.5;stroke-miterlimit:10;}
</style>
<path class="st0" d="M53.7,81.2"/>
<text transform="matrix(1 0 0 1 6.4999 78.0375)" class="st1 st2">BonZeb</text>
<path class="st3" d="M68.5,57.9c0.6,0,4.1,0.1,6.9-2.8c2.8-2.9,2.7-6.5,2.6-7.1"/>
<g>
	<g>
		<path class="st4" d="M59.3,40.1c-0.1-0.1-0.2-0.3-0.3-0.4"/>
		<path class="st5" d="M58.3,39c-2.3-2.6-5.7-5.5-10.4-6.9c-9.9-3-16.7,3.3-23.6-0.1c-3-1.5-6.5-5-8.2-14.4"/>
		<path class="st4" d="M16,17c0-0.2-0.1-0.3-0.1-0.5"/>
	</g>
</g>
<line class="st6" x1="61.1" y1="38.8" x2="74.3" y2="40.1"/>
<circle class="st7" cx="57" cy="37.4" r="3.3"/>
<circle class="st7" cx="47.6" cy="31.9" r="2.7"/>
<circle class="st7" cx="35.8" cy="31.9" r="2.3"/>
<circle class="st7" cx="24.7" cy="31.9" r="2"/>
<circle class="st7" cx="17.8" cy="24.3" r="1.7"/>
<circle class="st7" cx="15.9" cy="15.6" r="1"/>
<ellipse transform="matrix(0.2579 -0.9662 0.9662 0.2579 -6.9343 99.7277)" class="st3" cx="61.5" cy="54.4" rx="4" ry="8.8"/>
<ellipse transform="matrix(0.9966 -8.183004e-02 8.183004e-02 0.9966 -3.042 6.3703)" class="st3" cx="76.2" cy="40.3" rx="4" ry="8.8"/>
<line class="st8" x1="73.3" y1="56.8" x2="49.5" y2="52"/>
<line class="st8" x1="74.6" y1="28.3" x2="77.7" y2="52.4"/>
<circle class="st9" cx="76.2" cy="40.3" r="3.2"/>
<line class="st6" x1="58.4" y1="40.8" x2="61.8" y2="52"/>
<path class="st3" d="M72.8,34.5c-0.7-0.5-1.7-1-2.8-1.4c-2.6-0.9-4.9-0.9-6.2-0.7c-0.2-0.7-0.9-2.1-2.3-3.3
	c-2.6-2.1-5.7-1.5-6.2-1.4c-2.8-0.8-7.3-1.9-12.8-1.9c-9,0.1-13.2,3-17.8,0.8c-2.3-1.1-5.3-3.9-6.9-11.5c0.5-2.4,1.1-4.8,1.6-7.1
	c-0.7,0.9-2.3,2.9-5.1,4.1c-3.3,1.4-6.2,1-7.3,0.8c2.2,0.9,4.3,1.8,6.5,2.8c-0.3,2.1-0.6,7.4,2.5,12.8c0.8,1.4,2.6,4.5,6.4,6.6
	c3.5,2,6.9,2.2,9.1,2.3c4.3,0.1,5.4-1,9.6-0.9c3.2,0.1,5.8,0.8,7.5,1.4c-0.1,0.2-1,2.5,0.5,4.6c1.3,1.8,3.3,2,3.6,2
	c0,0.7,0,2,0.7,3.4c0.6,1.2,1.3,2,1.8,2.5"/>
<circle class="st9" cx="61.8" cy="54.4" r="3.2"/>
</svg>
